<svg xmlns="http://www.w3.org/2000/svg" xml:space="preserve" width="1063px" height="591px" version="1.1" style="shape-rendering:geometricPrecision; text-rendering:geometricPrecision; image-rendering:optimizeQuality; fill-rule:evenodd; clip-rule:evenodd" viewBox="0 0 106300 59056" xmlns:xlink="http://www.w3.org/1999/xlink">
    <g id="Camada_x0020_1">
        <g id="_2992760963984">
            <path class="fil0" d="M22195 35213c0,-1245 2068,-1532 2068,115 0,1332 -2068,1167 -2068,-115zm-7108 -16654l3336 0c1853,77 3627,280 5009,601 3044,708 2784,2023 2784,4567 830,0 1608,343 1608,1149 0,1700 350,2986 -1608,2986l0 8844c0,577 -456,1140 -919,1264 0,804 22,1244 -315,1752 -261,393 -749,688 -1275,775l-618 0c-775,-137 -1468,-822 -1468,-2412 -1158,269 -6541,146 -8505,117 -941,-15 -986,-310 -1033,444 -40,636 -106,935 -433,1298 -227,253 -664,482 -1146,553l-591 0c-779,-125 -1501,-787 -1501,-2527 -442,-118 -804,-604 -804,-1149l0 -8959c-834,0 -1723,-312 -1723,-1263l0 -9 0 -1481c78,-786 423,-1382 1723,-1382l0 -2297c0,-611 631,-1343 1013,-1629 441,-332 1301,-539 1949,-692 1261,-298 2845,-479 4517,-550zm-5641 16654c0,-1245 2068,-1532 2068,115 0,1270 -2068,1219 -2068,-115zm0 -4020l0 -6891c0,-353 337,-460 689,-460l13669 0c268,0 459,191 459,460l0 7006c0,265 -80,345 -345,345l-14012 0c-269,0 -460,-191 -460,-460zm3101 -9533c0,-903 -124,-1264 345,-1264l7925 0c469,0 345,361 345,1264 0,265 -80,344 -345,344l-7925 0c-265,0 -345,-79 -345,-344z"/>
            <polygon class="fil0" points="61592,37281 73078,37281 73078,34409 64464,34409 64464,31078 72734,31078 72734,28322 64464,28322 64464,24876 73078,24876 73078,22004 61592,22004 "/>
            <polygon class="fil0" points="48843,37281 60329,37281 60329,34409 51714,34409 51714,31078 59984,31078 59984,28322 51714,28322 51714,24876 60329,24876 60329,22004 48843,22004 "/>
            <path class="fil0" d="M39195 25450l229 0c101,432 447,1080 640,1543l2002 4660 -5513 0c233,-487 430,-994 657,-1525 380,-889 1835,-4034 1985,-4678zm-8385 11831l3216 0 1263 -2872 8041 0 1263 2872 3216 0 -853 -1904c-966,-2329 -2495,-5348 -3463,-7678l-2164 -4842c-459,-1141 -248,-853 -3398,-853 -388,0 -686,1025 -1001,1756 -283,659 -593,1239 -870,1887 -999,2336 -4437,10097 -5250,11634z"/>
            <path class="fil0" d="M74227 25680c0,4886 4568,4443 7492,5143 544,130 1065,330 1437,629 206,165 375,331 488,546 1311,2505 -3025,4034 -6011,2451 -622,-330 -1401,-1045 -1569,-1763 -540,45 -593,243 -1262,576 -381,189 -827,471 -1264,573 258,1111 1423,2366 2300,2868 3922,2248 10908,784 10908,-3442 0,-1793 -191,-3238 -1988,-4214 -3234,-1757 -7440,-715 -7633,-2929 -62,-715 474,-1359 937,-1657 1067,-689 3029,-576 4308,-32 678,288 1186,648 1505,1251l2412 -1147c-214,-801 -1385,-1880 -2103,-2263 -3302,-1760 -9957,-830 -9957,3410z"/>
            <path class="fil0" d="M94442 30159l-3905 0 0 -5398c1963,0 4926,-316 6110,667 1402,1164 1391,4731 -2205,4731zm-6892 7122l2987 0 0 -4480 4709 0c2968,0 5169,-2315 5169,-5628 0,-2801 -2368,-5169 -5169,-5169l-7696 0 0 15277z"/>
        </g>
    </g>
</svg>