<?xml version="1.0" standalone="no"?>
<!DOCTYPE svg PUBLIC "-//W3C//DTD SVG 20010904//EN"
 "http://www.w3.org/TR/2001/REC-SVG-20010904/DTD/svg10.dtd">
<svg version="1.0" xmlns="http://www.w3.org/2000/svg"
 width="1024.000000pt" height="1024.000000pt" viewBox="0 0 1024.000000 1024.000000"
 preserveAspectRatio="xMidYMid meet">
<metadata>
Created by potrace 1.11, written by Peter Selinger 2001-2013
</metadata>
<g transform="translate(0.000000,1024.000000) scale(0.100000,-0.100000)"
fill="#000000" stroke="none">
<path d="M0 5120 l0 -5120 5120 0 5120 0 0 5120 0 5120 -5120 0 -5120 0 0
-5120z m5630 3260 c819 -41 1573 -180 1893 -347 98 -52 201 -164 261 -285 72
-148 76 -172 76 -574 l0 -352 118 -4 c104 -3 124 -7 177 -33 79 -38 149 -109
188 -193 l32 -67 0 -290 0 -290 -27 -57 c-77 -164 -199 -238 -394 -238 l-94 0
0 -1358 c0 -1473 2 -1412 -54 -1513 -32 -56 -108 -129 -165 -158 l-41 -21 0
-123 c0 -158 -12 -223 -60 -323 -66 -137 -212 -252 -358 -283 -237 -50 -476
71 -582 294 -37 79 -50 154 -50 297 l0 118 -1435 0 -1435 0 0 -119 c0 -188
-26 -282 -107 -388 -198 -258 -541 -286 -775 -64 -54 50 -78 82 -108 145 -48
100 -60 165 -60 323 l0 123 -41 21 c-55 28 -132 101 -164 154 -57 98 -55 39
-55 1517 l0 1358 -94 0 c-195 0 -317 74 -394 238 l-27 57 0 290 0 290 32 67
c39 84 109 155 188 193 53 26 73 30 178 33 l117 4 0 352 c0 403 3 426 77 576
39 79 62 110 133 180 95 96 130 116 313 179 397 137 1016 236 1677 270 229 12
836 12 1060 1z"/>
<path d="M3885 7851 c-70 -43 -70 -44 -70 -248 l0 -185 37 -34 38 -34 1224 0
1224 0 30 25 c49 41 54 66 50 248 -3 161 -4 166 -28 192 -54 58 23 55 -1277
55 -1149 0 -1199 -1 -1228 -19z"/>
<path d="M2945 6789 c-20 -18 -39 -47 -45 -69 -7 -26 -9 -393 -8 -1097 l3
-1058 24 -34 c47 -66 -116 -61 2196 -61 2312 0 2149 -5 2196 61 l24 34 3 1058
c1 704 -1 1071 -8 1097 -6 22 -25 51 -45 69 l-36 31 -2134 0 -2134 0 -36 -31z"/>
<path d="M3103 3729 c-261 -100 -277 -467 -26 -591 60 -29 77 -33 148 -33 67
1 89 5 135 29 95 48 150 116 176 217 30 118 -5 230 -100 316 -89 82 -219 106
-333 62z"/>
<path d="M6896 3733 c-101 -34 -197 -156 -212 -269 -12 -93 34 -213 107 -281
13 -12 49 -34 79 -49 46 -24 68 -28 135 -29 71 0 88 4 148 33 157 78 223 261
152 421 -69 152 -246 228 -409 174z"/>
</g>
</svg>
